<svg xmlns="http://www.w3.org/2000/svg" height="24" viewBox="0 -960 960 960" width="24"><path d="M172.309-180.001q-30.308 0-51.308-21t-21-51.308v-455.382q0-30.308 21-51.308t51.308-21h219.613l80 80h315.769q30.308 0 51.308 21t21 51.308v375.382q0 30.308-21 51.308t-51.308 21H172.309Zm0-59.999h615.382q5.385 0 8.847-3.462 3.462-3.462 3.462-8.847v-375.382q0-5.385-3.462-8.847-3.462-3.462-8.847-3.462H447.385l-80-80H172.309q-5.385 0-8.847 3.462-3.462 3.462-3.462 8.847v455.382q0 5.385 3.462 8.847 3.462 3.462 8.847 3.462ZM160-240v-480 480Z"/></svg>